<svg width="32" height="32" viewBox="0 0 32 32" fill="none" xmlns="http://www.w3.org/2000/svg">
<path d="M6.76376 18.1671L0.11887 27.0667C-0.172199 27.458 0.104671 28.0129 0.58742 28.0129H3.77498C5.62788 28.0129 7.3672 27.1379 8.48178 25.651L10.5548 22.8766C10.7038 22.6703 10.7109 22.3928 10.5619 22.1865L7.71506 18.1813C7.48078 17.8541 7.00514 17.8541 6.76376 18.1671Z" fill="url(#paint0_linear_2038_1202)"/>
<path d="M31.8809 24.6835L29.0767 20.9202C28.885 20.6641 28.5159 20.6072 28.2674 20.7921C26.6914 21.9802 24.6539 22.4212 22.6448 21.9161C19.94 21.2332 17.938 18.8144 17.725 16.0257C17.4268 12.1486 20.4937 8.89039 24.306 8.89039C25.6762 8.89039 26.9753 9.30301 28.0757 10.0713C28.3313 10.2492 28.6862 10.178 28.8637 9.92192L31.604 6.1017C31.7957 5.83849 31.7389 5.46856 31.4762 5.27648C29.3891 3.79677 26.9114 3 24.306 3C19.9826 3 16.1632 5.21957 13.9269 8.57738L12.8691 9.99306C12.6349 10.3061 12.1663 10.3061 11.932 9.99306L8.4676 5.36185C7.35302 3.88214 5.61371 3.00711 3.7608 3.00711H1.09859C0.615839 3.00711 0.346068 3.54778 0.622938 3.93905L6.86317 12.6252L13.217 21.4537L14.0405 22.5991C16.291 25.8573 20.0536 28.0057 24.306 28.0057C27.025 28.0057 29.6304 27.1165 31.7744 25.5016C32.03 25.3095 32.0726 24.9396 31.8809 24.6835Z" fill="url(#paint1_linear_2038_1202)"/>
<defs>
<linearGradient id="paint0_linear_2038_1202" x1="5.33509" y1="17.9341" x2="5.33509" y2="28.0129" gradientUnits="userSpaceOnUse">
<stop stop-color="#003DF5"/>
<stop offset="0.495" stop-color="#003DF5"/>
</linearGradient>
<linearGradient id="paint1_linear_2038_1202" x1="16.2558" y1="3" x2="16.2558" y2="28.0057" gradientUnits="userSpaceOnUse">
<stop stop-color="#33DDEE"/>
<stop offset="0.495" stop-color="#003DF5"/>
</linearGradient>
</defs>
</svg>